<svg width="49" height="48" viewBox="0 0 49 48" fill="none" xmlns="http://www.w3.org/2000/svg">
<path d="M0.333008 24C0.333008 10.7452 11.0782 0 24.333 0C37.5878 0 48.333 10.7452 48.333 24C48.333 37.2548 37.5878 48 24.333 48C11.0782 48 0.333008 37.2548 0.333008 24Z" fill="#F68634"/>
<path d="M26.9288 29.4403L30.5154 32.9028C31.2502 33.6106 31.2502 34.7601 30.5154 35.4686C29.7814 36.1771 28.5918 36.1771 27.8586 35.4686L24.3322 32.0661L20.8088 35.4686C20.4414 35.8225 19.9601 35.9996 19.4787 35.9996C18.998 35.9996 18.5174 35.8225 18.15 35.4686C17.416 34.7601 17.416 33.6113 18.1493 32.9028L21.7363 29.4403C20.4303 29.1531 19.1708 28.6536 18.0107 27.951C17.1327 27.4167 16.869 26.2972 17.4222 25.449C17.9738 24.5996 19.1339 24.3439 20.0134 24.8783C22.64 26.4732 26.0236 26.4736 28.6517 24.8783C29.5312 24.3439 30.6909 24.5996 31.2437 25.449C31.7969 26.2964 31.5324 27.4167 30.6544 27.951C29.4943 28.6543 28.2348 29.1531 26.9288 29.4403Z" fill="white"/>
<path fill-rule="evenodd" clip-rule="evenodd" d="M17.9004 18.1936C17.9004 21.6079 20.778 24.3853 24.3163 24.3853C27.8554 24.3853 30.7322 21.6079 30.7322 18.1936C30.7322 14.7781 27.8554 12 24.3163 12C20.778 12 17.9004 14.7781 17.9004 18.1936ZM26.9728 18.1936C26.9728 16.7795 25.7812 15.6297 24.3163 15.6297C22.8525 15.6297 21.6598 16.7795 21.6598 18.1936C21.6598 19.6065 22.8525 20.7571 24.3163 20.7571C25.7812 20.7571 26.9728 19.6065 26.9728 18.1936Z" fill="white"/>
</svg>
