<svg width="49" height="48" viewBox="0 0 49 48" fill="none" xmlns="http://www.w3.org/2000/svg">
<circle cx="24.667" cy="24" r="24" fill="#4680C2"/>
<path fill-rule="evenodd" clip-rule="evenodd" d="M37.9846 17.1797C38.1995 16.5143 37.9846 16.0303 37.0325 16.0303H33.869C33.0704 16.0303 32.7019 16.4537 32.4869 16.9075C32.4869 16.9075 30.8591 20.7794 28.5863 23.29C27.8492 24.016 27.5113 24.258 27.1121 24.258C26.8971 24.258 26.6207 24.016 26.6207 23.3506V17.1494C26.6207 16.363 26.375 16 25.6992 16H20.7237C20.2323 16 19.9252 16.363 19.9252 16.726C19.9252 17.4823 21.0616 17.6637 21.1844 19.7811V24.379C21.1844 25.3773 21.0002 25.5587 20.6009 25.5587C19.5259 25.5587 16.9153 21.6566 15.349 17.21C15.0418 16.3327 14.7347 16 13.9362 16H10.7419C9.82057 16 9.66699 16.4235 9.66699 16.8773C9.66699 17.694 10.7419 21.8078 14.6732 27.2527C17.2839 30.9733 21.0002 32.9697 24.3479 32.9697C26.375 32.9697 26.6207 32.516 26.6207 31.7598V28.9467C26.6207 28.0391 26.8049 27.888 27.4499 27.888C27.9106 27.888 28.7399 28.1299 30.6133 29.9146C32.7633 32.032 33.1318 33 34.3296 33H37.4931C38.4145 33 38.8445 32.5463 38.5988 31.669C38.3224 30.7918 37.2782 29.5214 35.9268 28.0089C35.1896 27.162 34.0839 26.2243 33.7461 25.7704C33.2854 25.1655 33.4083 24.9235 33.7461 24.379C33.7155 24.379 37.5853 18.9947 37.9846 17.1797Z" fill="white"/>
</svg>
